<!-- assets/flags/ba.svg -->
<svg width="23" height="23" viewBox="0 0 23 23" fill="none" xmlns="http://www.w3.org/2000/svg">
  <g clip-path="url(#clip0_153_3081)">
    <path d="M11.5 23C17.8513 23 23 17.8513 23 11.5C23 5.14873 17.8513 0 11.5 0C5.14873 0 0 5.14873 0 11.5C0 17.8513 5.14873 23 11.5 23Z" fill="#F0F0F0"/>
    <path d="M11.5 0C7.42242 0 3.8408 2.12224 1.79883 5.3223L17.3939 21.376C20.7515 19.3679 23 15.6967 23 11.5C23 5.14877 17.8512 0 11.5 0Z" fill="#FFDA44"/>
    <path d="M23 11.4997C23 8.51589 21.8636 5.79776 20 3.75391V19.2455C21.8636 17.2016 23 14.4835 23 11.4997Z" fill="#0052B4"/>
    <path d="M14.3655 21.646L15.5701 21.6452L15.9417 20.4993L16.3146 21.6448L16.9188 21.6444C17.2893 21.4461 17.6476 21.2281 17.9925 20.9917L2.00751 5.00684C1.74409 5.39119 1.50385 5.79252 1.28782 6.2085L1.42986 6.64478L2.63444 6.64401L1.66036 7.35266L2.0333 8.49812L1.05831 7.79069L0.476801 8.21367C0.166795 9.25478 0 10.3576 0 11.4993C0 17.8506 5.14877 22.9993 11.5 22.9993C12.8428 22.9993 14.1317 22.7688 15.3296 22.3456L14.3655 21.646ZM2.56499 10.9994L2.9365 9.8535L1.9616 9.14598L3.16618 9.14522L3.53773 7.99931L3.91067 9.14477L5.11525 9.14401L4.14112 9.85265L4.51406 10.9981L3.53908 10.2907L2.56499 10.9994ZM5.0458 13.4994L5.41731 12.3535L4.44241 11.646L5.64699 11.6452L6.01854 10.4993L6.39148 11.6448L7.59606 11.644L6.62198 12.3526L6.99492 13.4981L6.01994 12.7907L5.0458 13.4994ZM7.52657 15.9994L7.89807 14.8535L6.92318 14.146L8.12776 14.1452L8.49931 12.9993L8.87225 14.1448L10.0768 14.144L9.10274 14.8526L9.47569 15.9981L8.5007 15.2906L7.52657 15.9994ZM10.9815 17.7907L10.0073 18.4993L10.3788 17.3535L9.40394 16.646L10.6085 16.6452L10.9801 15.4993L11.3531 16.6447L12.5576 16.644L11.5836 17.3526L11.9565 18.4981L10.9815 17.7907ZM12.4881 20.9993L12.8597 19.8535L11.8848 19.146L13.0893 19.1452L13.4609 17.9993L13.8338 19.1447L15.0384 19.144L14.0643 19.8526L14.4373 20.9981L13.4623 20.2906L12.4881 20.9993Z" fill="#0052B4"/>
  </g>
  <defs>
    <clipPath id="clip0_153_3081">
      <rect width="23" height="23" fill="white"/>
    </clipPath>
  </defs>
</svg>