<svg width="13" height="13" viewBox="0 0 13 13" fill="none" xmlns="http://www.w3.org/2000/svg">
  <g clip-path="url(#clip0_153_2541)">
    <path d="M6.5 13C10.0899 13 13 10.0899 13 6.5C13 2.91015 10.0899 0 6.5 0C2.91015 0 0 2.91015 0 6.5C0 10.0899 2.91015 13 6.5 13Z" fill="#F0F0F0"/>
    <path d="M1.34338 2.54199C0.832805 3.20629 0.447807 3.97194 0.223633 4.80371H3.60511L1.34338 2.54199Z" fill="#0052B4"/>
    <path d="M12.776 4.80369C12.5518 3.97194 12.1668 3.20629 11.6562 2.54199L9.39453 4.80369H12.776Z" fill="#0052B4"/>
    <path d="M0.223633 8.19531C0.447832 9.02706 0.83283 9.79271 1.34338 10.457L3.60503 8.19531H0.223633Z" fill="#0052B4"/>
    <path d="M10.457 1.34341C9.79271 0.83283 9.02708 0.447832 8.19531 0.223633V3.60508L10.457 1.34341Z" fill="#0052B4"/>
    <path d="M2.54199 11.6562C3.20629 12.1668 3.97194 12.5518 4.80369 12.776V9.39453L2.54199 11.6562Z" fill="#0052B4"/>
    <path d="M4.80366 0.223633C3.97192 0.447832 3.20626 0.83283 2.54199 1.34338L4.80366 3.60505V0.223633Z" fill="#0052B4"/>
    <path d="M8.19531 12.776C9.02706 12.5518 9.79271 12.1668 10.457 11.6562L8.19531 9.39453V12.776Z" fill="#0052B4"/>
    <path d="M9.39453 8.19531L11.6562 10.457C12.1668 9.79274 12.5518 9.02706 12.776 8.19531H9.39453Z" fill="#0052B4"/>
    <path d="M12.945 5.65218H7.34787H7.34784V0.0550215C7.0703 0.0188906 6.78735 0 6.5 0C6.2126 0 5.9297 0.0188906 5.65218 0.0550215V5.65213V5.65216H0.0550215C0.0188906 5.9297 0 6.21265 0 6.5C0 6.7874 0.0188906 7.0703 0.0550215 7.34782H5.65213H5.65216V12.945C5.9297 12.9811 6.2126 13 6.5 13C6.78735 13 7.0703 12.9811 7.34782 12.945V7.34787V7.34784H12.945C12.9811 7.0703 13 6.7874 13 6.5C13 6.21265 12.9811 5.9297 12.945 5.65218Z" fill="#D80027"/>
    <path d="M8.19531 8.19534L11.0958 11.0959C11.2292 10.9625 11.3565 10.8231 11.4779 10.6786L8.99466 8.19531H8.19531V8.19534Z" fill="#D80027"/>
    <path d="M4.80387 8.19531H4.80382L1.90332 11.0958C2.03667 11.2292 2.17609 11.3565 2.32062 11.4779L4.80387 8.99458V8.19531Z" fill="#D80027"/>
    <path d="M4.80409 4.80392V4.80387L1.90356 1.90332C1.77016 2.03667 1.6429 2.17609 1.52148 2.32062L4.00476 4.80389H4.80409V4.80392Z" fill="#D80027"/>
    <path d="M8.19531 4.80411L11.0959 1.90354C10.9625 1.77013 10.8231 1.64288 10.6786 1.52148L8.19531 4.00476V4.80411Z" fill="#D80027"/>
  </g>
  <defs>
    <clipPath id="clip0_153_2541">
      <rect width="13" height="13" fill="white"/>
    </clipPath>
  </defs>
</svg>