<svg width="13" height="13" viewBox="0 0 13 13" fill="none" xmlns="http://www.w3.org/2000/svg">
  <g clip-path="url(#clip0_153_2538)">
    <path d="M13 6.49954C13 5.70445 12.857 4.94281 12.5957 4.23868L6.5 3.95605L0.404295 4.23865C0.143025 4.94281 0 5.70445 0 6.49954C0 7.29462 0.143025 8.05626 0.404295 8.76039L6.5 9.04302L12.5957 8.76042C12.857 8.05626 13 7.29462 13 6.49954Z" fill="#F0F0F0"/>
    <path d="M6.5 12.9999C9.29477 12.9999 11.6773 11.2359 12.5957 8.76074H0.404297C1.3227 11.2359 3.70523 12.9999 6.5 12.9999Z" fill="#0052B4"/>
    <path d="M0.404297 4.23914H12.5957C11.6773 1.76394 9.29477 0 6.5 0C3.70523 0 1.3227 1.76394 0.404297 4.23914Z" fill="#D80027"/>
    <path d="M8.19587 4.52223H7.06543L7.25385 3.10917L8.00745 2.54395L8.76107 3.10917V4.23961L8.19587 4.52223Z" fill="#338AF3"/>
    <path d="M4.80445 4.52223H5.93489L5.74647 3.10917L4.99285 2.54395L4.23926 3.10917V4.23961L4.80445 4.52223Z" fill="#338AF3"/>
    <path d="M7.25338 4.52223H5.74609V3.10917L6.49974 2.54395L7.25338 3.10917V4.52223Z" fill="#0052B4"/>
    <path d="M4.23926 4.23926V7.34793C4.23926 8.08815 4.59681 8.74642 5.14829 9.1591L5.54396 9.0601L6.04324 9.56238C6.19088 9.59279 6.34366 9.60882 6.50014 9.60882C6.65579 9.60882 6.8078 9.593 6.95466 9.56289L7.5246 9.08833L7.85194 9.15818C8.40319 8.74553 8.761 8.08794 8.761 7.34793V4.23926H4.23926Z" fill="#F0F0F0"/>
    <path d="M4.23926 4.23926H5.1436V5.1436H4.23926V4.23926Z" fill="#D80027"/>
    <path d="M6.04785 4.23926H6.95219V5.1436H6.04785V4.23926Z" fill="#D80027"/>
    <path d="M7.85645 4.23926H8.76078V5.1436H7.85645V4.23926Z" fill="#D80027"/>
    <path d="M5.14355 5.14355H6.04789V6.04789H5.14355V5.14355Z" fill="#D80027"/>
    <path d="M6.95215 5.14355H7.85649V6.04789H6.95215V5.14355Z" fill="#D80027"/>
    <path d="M4.23926 6.04785H5.1436V6.95219H4.23926V6.04785Z" fill="#D80027"/>
    <path d="M5.14355 6.95215H6.04789V7.85649H5.14355V6.95215Z" fill="#D80027"/>
    <path d="M6.04785 6.04785H6.95219V6.95219H6.04785V6.04785Z" fill="#D80027"/>
    <path d="M7.85645 6.04785H8.76078V6.95219H7.85645V6.04785Z" fill="#D80027"/>
    <path d="M6.95215 6.95215H7.85649V7.85649H6.95215V6.95215Z" fill="#D80027"/>
    <path d="M6.04785 7.85645H6.95219V8.76078H6.04785V7.85645Z" fill="#D80027"/>
    <path d="M5.14384 7.85645H4.29785C4.37545 8.19262 4.52799 8.50022 4.73716 8.76078H5.14384V7.85645Z" fill="#D80027"/>
    <path d="M7.85645 8.76078H8.2631C8.47232 8.50022 8.62482 8.19259 8.70241 7.85645H7.85645V8.76078Z" fill="#D80027"/>
    <path d="M5.14355 8.76074V9.15534C5.40658 9.35326 5.71395 9.49517 6.04789 9.56326V8.76074H5.14355Z" fill="#D80027"/>
    <path d="M6.95215 8.76074V9.56326C7.28611 9.49522 7.59346 9.35326 7.85649 9.15534V8.76074H6.95215Z" fill="#D80027"/>
  </g>
  <defs>
    <clipPath id="clip0_153_2538">
      <rect width="13" height="13" fill="white"/>
    </clipPath>
  </defs>
</svg>