<svg width="13" height="13" viewBox="0 0 13 13" fill="none" xmlns="http://www.w3.org/2000/svg">
  <g clip-path="url(#clip0_153_2535)">
    <path d="M0.404295 4.23905C0.143025 4.94323 0 5.70482 0 6.49991C0 7.29499 0.143025 8.05663 0.404295 8.76076L6.5 9.32598L12.5957 8.76076C12.857 8.05663 13 7.29499 13 6.49991C13 5.70482 12.857 4.94323 12.5957 4.23905L6.5 3.67383L0.404295 4.23905Z" fill="#F0F0F0"/>
    <path d="M6.49998 0C3.70523 0 1.32268 1.76394 0.404297 4.23914H12.5957C11.6773 1.76394 9.29477 0 6.49998 0Z" fill="#D80027"/>
    <path d="M6.49998 12.9999C9.29477 12.9999 11.6773 11.2359 12.5957 8.76074H0.404297C1.32268 11.2359 3.70523 12.9999 6.49998 12.9999Z" fill="#6DA544"/>
  </g>
  <defs>
    <clipPath id="clip0_153_2535">
      <rect width="13" height="13" fill="white"/>
    </clipPath>
  </defs>
</svg>