<svg width="23" height="23" viewBox="0 0 23 23" fill="none" xmlns="http://www.w3.org/2000/svg">
  <g clip-path="url(#clip0_153_2534)">
    <path d="M11.5 23C17.8513 23 23 17.8513 23 11.5C23 5.14873 17.8513 0 11.5 0C5.14873 0 0 5.14873 0 11.5C0 17.8513 5.14873 23 11.5 23Z" fill="#F0F0F0"/>
    <path d="M23 11.4996C23 6.55496 19.8792 2.33971 15.5 0.714844V22.2843C19.8792 20.6594 23 16.4441 23 11.4996Z" fill="#D80027"/>
    <path d="M0 11.4996C0 16.4441 3.12081 20.6594 7.50002 22.2843V0.714844C3.12081 2.33971 0 6.55496 0 11.4996Z" fill="#6DA544"/>
  </g>
  <defs>
    <clipPath id="clip0_153_2534">
      <rect width="23" height="23" fill="white"/>
    </clipPath>
  </defs>
</svg>