<svg width="13" height="13" viewBox="0 0 13 13" fill="none" xmlns="http://www.w3.org/2000/svg">
  <g clip-path="url(#clip0_153_2536)">
    <path d="M6.5 13C10.0899 13 13 10.0899 13 6.5C13 2.91015 10.0899 0 6.5 0C2.91015 0 0 2.91015 0 6.5C0 10.0899 2.91015 13 6.5 13Z" fill="#F0F0F0"/>
    <path d="M12.5957 4.23961H5.65218V2.54395H2.26086V4.23961H0.404295C0.143025 4.94374 0 5.70538 0 6.50046C0 7.29555 0.143025 8.05716 0.404295 8.76132L6.5 9.32654L12.5957 8.76132C12.857 8.05716 13 7.29555 13 6.50046C13 5.70538 12.857 4.94374 12.5957 4.23961Z" fill="#0052B4"/>
    <path d="M6.5 12.9999C9.29477 12.9999 11.6773 11.2359 12.5957 8.76074H0.404297C1.3227 11.2359 3.70523 12.9999 6.5 12.9999Z" fill="#D80027"/>
    <path d="M2.26074 4.23963V4.80482C2.26074 6.10282 3.9564 6.50051 3.9564 6.50051C3.9564 6.50051 5.65207 6.10282 5.65207 4.80482V4.23963L5.08685 4.80485L3.9564 3.95703L2.82596 4.80485L2.26074 4.23963Z" fill="#F0F0F0"/>
  </g>
  <defs>
    <clipPath id="clip0_153_2536">
      <rect width="13" height="13" fill="white"/>
    </clipPath>
  </defs>
</svg>