<svg width="13" height="14" viewBox="0 0 13 14" fill="none" xmlns="http://www.w3.org/2000/svg">
  <g clip-path="url(#clip0_153_2537)">
    <path d="M6.5 14C10.0899 14 13 10.866 13 7C13 3.13401 10.0899 0 6.5 0C2.91015 0 0 3.13401 0 7C0 10.866 2.91015 14 6.5 14Z" fill="#F0F0F0"/>
    <path d="M6.5 0C2.91017 0 0 3.13403 0 7C0 7.85624 0.143025 8.67647 0.404295 9.43477H12.5957C12.857 8.67647 13 7.85624 13 7C13 3.13403 10.0898 0 6.5 0Z" fill="#0052B4"/>
    <path d="M6.5 0C3.70523 0 1.3227 1.89963 0.404297 4.56523H12.5957C11.6773 1.89963 9.29477 0 6.5 0Z" fill="#D80027"/>
    <path d="M1.68066 3.95605V7.44802C1.68066 9.43438 4.09026 10.043 4.09026 10.043C4.09026 10.043 6.49983 9.43438 6.49983 7.44802V3.95605H1.68066Z" fill="#D80027"/>
    <path d="M2.67676 4.56536H5.50286V3.34796L4.93764 3.65229L4.08982 2.73926L3.24198 3.65229L2.67676 3.34796V4.56536Z" fill="#FFDA44"/>
    <path d="M5.93466 7.9353L4.0977 5.95703L2.26074 7.9353L2.86024 8.58091L4.0977 7.24826L5.33517 8.58091L5.93466 7.9353Z" fill="#FFDA44"/>
    <path d="M5.93466 6.08681H5.07758C5.12577 5.99723 5.1538 5.89349 5.1538 5.78253C5.1538 5.44631 4.90073 5.17383 4.58858 5.17383C4.37289 5.17383 4.18558 5.30393 4.09029 5.4952C3.995 5.30396 3.80769 5.17383 3.592 5.17383C3.27985 5.17383 3.02678 5.44631 3.02678 5.78253C3.02678 5.89349 3.05481 5.99726 3.103 6.08681H2.26074C2.26074 6.423 2.53265 6.69551 2.84478 6.69551H2.82596C2.82596 7.0317 3.07901 7.30421 3.39118 7.30421C3.39118 7.60187 3.58969 7.84917 3.85185 7.90211L3.40649 8.98497C3.61993 9.07841 3.85317 9.1303 4.09773 9.1303C4.34229 9.1303 4.57553 9.07841 4.78896 8.98497L4.34361 7.90211C4.60577 7.84922 4.80427 7.6019 4.80427 7.30421C5.11645 7.30421 5.36949 7.0317 5.36949 6.69551H5.35068C5.66278 6.69551 5.93466 6.42297 5.93466 6.08681Z" fill="#F0F0F0"/>
  </g>
  <defs>
    <clipPath id="clip0_153_2537">
      <rect width="13" height="14" fill="white"/>
    </clipPath>
  </defs>
</svg>