<svg width="13" height="13" viewBox="0 0 13 13" fill="none" xmlns="http://www.w3.org/2000/svg">
  <g clip-path="url(#clip0_153_2540)">
    <path d="M6.5 13C10.0899 13 13 10.0899 13 6.5C13 2.91015 10.0899 0 6.5 0C2.91015 0 0 2.91015 0 6.5C0 10.0899 2.91015 13 6.5 13Z" fill="#D80027"/>
    <path d="M6.23344 5.31152L6.76677 6.04645L7.63048 5.7664L7.09631 6.50069L7.62957 7.2356L6.76616 6.95447L6.23202 7.68877L6.23257 6.78078L5.36914 6.49965L6.23288 6.21959L6.23344 5.31152Z" fill="#F0F0F0"/>
    <path d="M4.77792 8.3371C3.76342 8.3371 2.94096 7.51465 2.94096 6.50014C2.94096 5.48563 3.76342 4.66318 4.77792 4.66318C5.09424 4.66318 5.39187 4.74319 5.65172 4.88398C5.24407 4.48529 4.68657 4.23926 4.0714 4.23926C2.82274 4.23926 1.81055 5.25148 1.81055 6.50012C1.81055 7.74875 2.82277 8.76097 4.0714 8.76097C4.68662 8.76097 5.2441 8.51491 5.65172 8.11625C5.39187 8.2571 5.09424 8.3371 4.77792 8.3371Z" fill="#F0F0F0"/>
  </g>
  <defs>
    <clipPath id="clip0_153_2540">
      <rect width="13" height="13" fill="white"/>
    </clipPath>
  </defs>
</svg>